<svg width="35" height="20" viewBox="0 0 35 20" fill="none" xmlns="http://www.w3.org/2000/svg">
<path d="M20.3226 10C20.3226 10.2947 20.2036 10.5773 19.9919 10.7857C19.7802 10.994 19.493 11.1111 19.1935 11.1111H16.371V13.8889C16.371 14.1836 16.252 14.4662 16.0403 14.6746C15.8285 14.8829 15.5414 15 15.2419 15C14.9425 15 14.6553 14.8829 14.4436 14.6746C14.2319 14.4662 14.1129 14.1836 14.1129 13.8889V11.1111H11.2903C10.9909 11.1111 10.7037 10.994 10.492 10.7857C10.2802 10.5773 10.1613 10.2947 10.1613 10C10.1613 9.70532 10.2802 9.4227 10.492 9.21433C10.7037 9.00595 10.9909 8.88889 11.2903 8.88889H14.1129V6.11111C14.1129 5.81643 14.2319 5.53381 14.4436 5.32544C14.6553 5.11706 14.9425 5 15.2419 5C15.5414 5 15.8285 5.11706 16.0403 5.32544C16.252 5.53381 16.371 5.81643 16.371 6.11111V8.88889H19.1935C19.493 8.88889 19.7802 9.00595 19.9919 9.21433C20.2036 9.4227 20.3226 9.70532 20.3226 10ZM30.4839 3.33333V16.6667C30.4839 17.5507 30.127 18.3986 29.4918 19.0237C28.8566 19.6488 27.9951 20 27.0968 20H3.3871C2.48878 20 1.62726 19.6488 0.992058 19.0237C0.356854 18.3986 0 17.5507 0 16.6667V3.33333C0 2.44928 0.356854 1.60143 0.992058 0.976311C1.62726 0.35119 2.48878 0 3.3871 0H27.0968C27.9951 0 28.8566 0.35119 29.4918 0.976311C30.127 1.60143 30.4839 2.44928 30.4839 3.33333ZM28.2258 3.33333C28.2258 3.03865 28.1069 2.75603 27.8951 2.54766C27.6834 2.33929 27.3962 2.22222 27.0968 2.22222H3.3871C3.08766 2.22222 2.80048 2.33929 2.58875 2.54766C2.37702 2.75603 2.25806 3.03865 2.25806 3.33333V16.6667C2.25806 16.9614 2.37702 17.244 2.58875 17.4523C2.80048 17.6607 3.08766 17.7778 3.3871 17.7778H27.0968C27.3962 17.7778 27.6834 17.6607 27.8951 17.4523C28.1069 17.244 28.2258 16.9614 28.2258 16.6667V3.33333ZM33.871 4.44444C33.5715 4.44444 33.2844 4.56151 33.0726 4.76988C32.8609 4.97826 32.7419 5.26087 32.7419 5.55556V14.4444C32.7419 14.7391 32.8609 15.0217 33.0726 15.2301C33.2844 15.4385 33.5715 15.5556 33.871 15.5556C34.1704 15.5556 34.4576 15.4385 34.6693 15.2301C34.8811 15.0217 35 14.7391 35 14.4444V5.55556C35 5.26087 34.8811 4.97826 34.6693 4.76988C34.4576 4.56151 34.1704 4.44444 33.871 4.44444Z" fill="#25832B"/>
</svg>
