<svg width="230" height="21" viewBox="0 0 230 21" fill="none" xmlns="http://www.w3.org/2000/svg">
<path d="M31.084 9.072C31.084 7.028 30.174 5.908 28.228 5.908H27.01V12.292H28.228C30.174 12.292 31.084 11.144 31.084 9.072ZM25.008 14V4.2H28.284C31.224 4.2 33.156 6.034 33.156 9.072C33.156 12.138 31.21 14 28.284 14H25.008ZM41.1977 10.416C41.1977 12.67 39.8817 14.168 37.7117 14.168C35.5557 14.168 34.2117 12.67 34.2117 10.416C34.2117 8.176 35.5557 6.678 37.7117 6.678C39.8817 6.678 41.1977 8.176 41.1977 10.416ZM36.1857 10.416C36.1857 11.746 36.7317 12.572 37.7117 12.572C38.7057 12.572 39.2237 11.746 39.2237 10.416C39.2237 9.1 38.7057 8.274 37.7117 8.274C36.7317 8.274 36.1857 9.1 36.1857 10.416ZM48.1444 6.846C48.2984 9.24 48.7464 10.92 49.4044 12.502C50.1744 10.92 50.6364 9.24 50.7344 6.846H52.6524C52.3864 9.66 51.8684 11.466 50.4544 14H48.5224C48.0184 13.02 47.6124 12.152 47.2904 11.298C47.0104 12.18 46.6324 13.118 46.1564 14H44.2944C42.7404 11.466 42.3204 9.66 42.0964 6.846H44.0004C44.1404 9.24 44.6024 10.92 45.3304 12.502C45.9604 11.298 46.3804 9.688 46.5204 8.414C46.4504 7.924 46.3944 7.406 46.3524 6.846H48.1444ZM55.8537 14H53.9357V7.294C54.8177 6.916 56.0217 6.678 57.0997 6.678C59.1437 6.678 60.3197 7.686 60.3197 9.548V14H58.3877V9.688C58.3877 8.722 57.9397 8.274 57.0857 8.274C56.6377 8.274 56.2177 8.358 55.8537 8.526V14ZM63.9602 3.85V11.41C63.9602 12.166 64.1562 12.572 64.7162 12.572C64.8562 12.572 64.9962 12.558 65.1222 12.53L65.2622 14.056C64.9962 14.112 64.5622 14.168 64.2822 14.168C62.6722 14.168 62.0282 13.118 62.0282 11.438V3.962L63.9602 3.85ZM72.8891 10.416C72.8891 12.67 71.5731 14.168 69.4031 14.168C67.2471 14.168 65.9031 12.67 65.9031 10.416C65.9031 8.176 67.2471 6.678 69.4031 6.678C71.5731 6.678 72.8891 8.176 72.8891 10.416ZM67.8771 10.416C67.8771 11.746 68.4231 12.572 69.4031 12.572C70.3971 12.572 70.9151 11.746 70.9151 10.416C70.9151 9.1 70.3971 8.274 69.4031 8.274C68.4231 8.274 67.8771 9.1 67.8771 10.416ZM76.9658 12.782C77.3858 12.782 77.7358 12.698 77.9458 12.586V11.088C77.6238 11.018 77.2878 10.976 76.9518 10.976C76.3078 10.976 75.8038 11.228 75.8038 11.886C75.8038 12.474 76.2238 12.782 76.9658 12.782ZM79.8218 13.552C79.2478 13.846 78.1698 14.168 76.7698 14.168C74.8518 14.168 73.8858 13.23 73.8858 11.97C73.8858 10.584 75.0198 9.772 76.6998 9.758C77.0918 9.758 77.5958 9.814 77.9458 9.87V9.534C77.9458 8.68 77.4558 8.274 76.5178 8.274C75.9018 8.274 75.2438 8.372 74.6698 8.61L74.3198 7.098C74.9218 6.846 75.8878 6.678 76.7418 6.678C78.7998 6.678 79.8218 7.77 79.8218 9.66V13.552ZM87.7823 13.594C87.0963 13.916 86.0323 14.168 84.9963 14.168C82.6163 14.168 81.1883 12.768 81.1883 10.542C81.1883 8.204 82.7003 6.678 84.9963 6.678C85.2903 6.678 85.5983 6.72 85.8643 6.776V3.962L87.7823 3.864V13.594ZM83.1623 10.458C83.1623 11.844 83.8623 12.572 84.9823 12.572C85.3463 12.572 85.6543 12.502 85.8643 12.39V8.414C85.6123 8.33 85.3463 8.274 85.1083 8.274C83.8483 8.274 83.1623 9.016 83.1623 10.458ZM97.2529 14.168C94.2709 14.168 92.6469 12.18 92.6469 9.17C92.6469 6.132 94.2429 4.032 97.3369 4.032C98.1069 4.032 99.0169 4.242 99.7029 4.536L99.2549 6.23C98.6949 6.034 98.0649 5.796 97.3509 5.796C95.4889 5.796 94.7189 7.112 94.7189 9.156C94.7189 11.214 95.5169 12.404 97.3369 12.404C98.2469 12.404 98.9049 12.11 99.3949 11.858L99.7869 13.58C99.1569 13.916 98.2049 14.168 97.2529 14.168ZM103.776 12.782C104.196 12.782 104.546 12.698 104.756 12.586V11.088C104.434 11.018 104.098 10.976 103.762 10.976C103.118 10.976 102.614 11.228 102.614 11.886C102.614 12.474 103.034 12.782 103.776 12.782ZM106.632 13.552C106.058 13.846 104.98 14.168 103.58 14.168C101.662 14.168 100.696 13.23 100.696 11.97C100.696 10.584 101.83 9.772 103.51 9.758C103.902 9.758 104.406 9.814 104.756 9.87V9.534C104.756 8.68 104.266 8.274 103.328 8.274C102.712 8.274 102.054 8.372 101.48 8.61L101.13 7.098C101.732 6.846 102.698 6.678 103.552 6.678C105.61 6.678 106.632 7.77 106.632 9.66V13.552ZM110.267 3.85V11.41C110.267 12.166 110.463 12.572 111.023 12.572C111.163 12.572 111.303 12.558 111.429 12.53L111.569 14.056C111.303 14.112 110.869 14.168 110.589 14.168C108.979 14.168 108.335 13.118 108.335 11.438V3.962L110.267 3.85ZM114.657 6.846V14H112.725V6.846H114.657ZM113.691 5.894C112.977 5.894 112.571 5.46 112.571 4.816C112.571 4.172 112.977 3.738 113.691 3.738C114.391 3.738 114.797 4.172 114.797 4.816C114.797 5.46 114.391 5.894 113.691 5.894ZM123.134 10.318C123.134 12.698 121.706 14.168 119.424 14.168C118.388 14.168 117.226 14.028 116.54 13.664V3.962L118.472 3.864V6.846C118.724 6.748 119.074 6.678 119.522 6.678C121.678 6.678 123.134 8.008 123.134 10.318ZM118.472 12.432C118.738 12.53 118.99 12.572 119.34 12.572C120.6 12.572 121.174 11.746 121.174 10.388C121.174 9.016 120.6 8.274 119.354 8.274C119.032 8.274 118.724 8.372 118.472 8.484V12.432ZM124.62 7.294C125.376 6.916 126.552 6.678 127.56 6.678C128.064 6.678 128.54 6.734 128.82 6.804L128.54 8.386C128.302 8.302 128.008 8.274 127.714 8.274C127.196 8.274 126.846 8.372 126.552 8.512V14H124.62V7.294ZM132.528 12.782C132.948 12.782 133.298 12.698 133.508 12.586V11.088C133.186 11.018 132.85 10.976 132.514 10.976C131.87 10.976 131.366 11.228 131.366 11.886C131.366 12.474 131.786 12.782 132.528 12.782ZM135.384 13.552C134.81 13.846 133.732 14.168 132.332 14.168C130.414 14.168 129.448 13.23 129.448 11.97C129.448 10.584 130.582 9.772 132.262 9.758C132.654 9.758 133.158 9.814 133.508 9.87V9.534C133.508 8.68 133.018 8.274 132.08 8.274C131.464 8.274 130.806 8.372 130.232 8.61L129.882 7.098C130.484 6.846 131.45 6.678 132.304 6.678C134.362 6.678 135.384 7.77 135.384 9.66V13.552ZM141.105 14.042C140.769 14.126 140.321 14.168 139.887 14.168C138.221 14.168 137.367 13.258 137.367 11.41V8.386H136.415V6.846H137.367V5.292L139.299 5.194V6.846H140.853V8.386H139.299V11.382C139.299 12.194 139.635 12.572 140.265 12.572C140.559 12.572 140.825 12.53 141.007 12.488L141.105 14.042ZM144.229 6.846V14H142.297V6.846H144.229ZM143.263 5.894C142.549 5.894 142.143 5.46 142.143 4.816C142.143 4.172 142.549 3.738 143.263 3.738C143.963 3.738 144.369 4.172 144.369 4.816C144.369 5.46 143.963 5.894 143.263 5.894ZM152.692 10.416C152.692 12.67 151.376 14.168 149.206 14.168C147.05 14.168 145.706 12.67 145.706 10.416C145.706 8.176 147.05 6.678 149.206 6.678C151.376 6.678 152.692 8.176 152.692 10.416ZM147.68 10.416C147.68 11.746 148.226 12.572 149.206 12.572C150.2 12.572 150.718 11.746 150.718 10.416C150.718 9.1 150.2 8.274 149.206 8.274C148.226 8.274 147.68 9.1 147.68 10.416ZM156.069 14H154.151V7.294C155.033 6.916 156.237 6.678 157.315 6.678C159.359 6.678 160.535 7.686 160.535 9.548V14H158.603V9.688C158.603 8.722 158.155 8.274 157.301 8.274C156.853 8.274 156.433 8.358 156.069 8.526V14ZM169.905 14.168C166.923 14.168 165.299 12.18 165.299 9.17C165.299 6.132 166.895 4.032 169.989 4.032C170.759 4.032 171.669 4.242 172.355 4.536L171.907 6.23C171.347 6.034 170.717 5.796 170.003 5.796C168.141 5.796 167.371 7.112 167.371 9.156C167.371 11.214 168.169 12.404 169.989 12.404C170.899 12.404 171.557 12.11 172.047 11.858L172.439 13.58C171.809 13.916 170.857 14.168 169.905 14.168ZM179.095 12.138L179.403 13.692C178.787 13.972 177.877 14.168 176.953 14.168C174.699 14.168 173.159 12.74 173.159 10.416C173.159 8.19 174.573 6.678 176.631 6.678C178.465 6.678 179.669 7.98 179.669 9.856C179.669 10.276 179.641 10.64 179.613 10.92H175.189C175.371 12.04 176.029 12.544 177.149 12.544C177.835 12.544 178.493 12.39 179.095 12.138ZM176.631 8.218C175.819 8.218 175.287 8.792 175.161 9.744H177.821V9.576C177.821 8.792 177.401 8.218 176.631 8.218ZM181.139 7.294C181.895 6.916 183.071 6.678 184.079 6.678C184.583 6.678 185.059 6.734 185.339 6.804L185.059 8.386C184.821 8.302 184.527 8.274 184.233 8.274C183.715 8.274 183.365 8.372 183.071 8.512V14H181.139V7.294ZM190.392 14.042C190.056 14.126 189.608 14.168 189.174 14.168C187.508 14.168 186.654 13.258 186.654 11.41V8.386H185.702V6.846H186.654V5.292L188.586 5.194V6.846H190.14V8.386H188.586V11.382C188.586 12.194 188.922 12.572 189.552 12.572C189.846 12.572 190.112 12.53 190.294 12.488L190.392 14.042ZM193.516 6.846V14H191.584V6.846H193.516ZM192.55 5.894C191.836 5.894 191.43 5.46 191.43 4.816C191.43 4.172 191.836 3.738 192.55 3.738C193.25 3.738 193.656 4.172 193.656 4.816C193.656 5.46 193.25 5.894 192.55 5.894ZM194.727 6.846H195.679V6.552C195.679 4.858 196.491 3.738 198.171 3.738C198.647 3.738 198.997 3.794 199.347 3.892L199.081 5.404C198.913 5.376 198.689 5.348 198.493 5.348C197.779 5.348 197.611 5.81 197.611 6.51V6.846H201.839V14H199.921V8.386H197.611V14H195.679V8.386H194.727V6.846ZM199.781 4.816C199.781 4.172 200.187 3.738 200.901 3.738C201.601 3.738 202.021 4.172 202.021 4.816C202.021 5.46 201.601 5.894 200.901 5.894C200.187 5.894 199.781 5.46 199.781 4.816ZM206.861 6.678C207.659 6.678 208.457 6.86 208.975 7.098L208.611 8.624C208.079 8.4 207.505 8.274 207.029 8.274C205.895 8.274 205.279 9.072 205.279 10.388C205.279 11.83 205.923 12.572 207.127 12.572C207.589 12.572 208.149 12.446 208.681 12.208L208.989 13.762C208.513 14 207.785 14.168 206.973 14.168C204.649 14.168 203.305 12.726 203.305 10.444C203.305 8.176 204.635 6.678 206.861 6.678ZM212.946 12.782C213.366 12.782 213.716 12.698 213.926 12.586V11.088C213.604 11.018 213.268 10.976 212.932 10.976C212.288 10.976 211.784 11.228 211.784 11.886C211.784 12.474 212.204 12.782 212.946 12.782ZM215.802 13.552C215.228 13.846 214.15 14.168 212.75 14.168C210.832 14.168 209.866 13.23 209.866 11.97C209.866 10.584 211 9.772 212.68 9.758C213.072 9.758 213.576 9.814 213.926 9.87V9.534C213.926 8.68 213.436 8.274 212.498 8.274C211.882 8.274 211.224 8.372 210.65 8.61L210.3 7.098C210.902 6.846 211.868 6.678 212.722 6.678C214.78 6.678 215.802 7.77 215.802 9.66V13.552ZM221.523 14.042C221.187 14.126 220.739 14.168 220.305 14.168C218.639 14.168 217.785 13.258 217.785 11.41V8.386H216.833V6.846H217.785V5.292L219.717 5.194V6.846H221.271V8.386H219.717V11.382C219.717 12.194 220.053 12.572 220.683 12.572C220.977 12.572 221.243 12.53 221.425 12.488L221.523 14.042ZM228.163 12.138L228.471 13.692C227.855 13.972 226.945 14.168 226.021 14.168C223.767 14.168 222.227 12.74 222.227 10.416C222.227 8.19 223.641 6.678 225.699 6.678C227.533 6.678 228.737 7.98 228.737 9.856C228.737 10.276 228.709 10.64 228.681 10.92H224.257C224.439 12.04 225.097 12.544 226.217 12.544C226.903 12.544 227.561 12.39 228.163 12.138ZM225.699 8.218C224.887 8.218 224.355 8.792 224.229 9.744H226.889V9.576C226.889 8.792 226.469 8.218 225.699 8.218Z" fill="#0C75FF"/>
<path fill-rule="evenodd" clip-rule="evenodd" d="M10.1159 6.53333C9.72681 6.53333 9.41177 6.2207 9.41177 5.83505V0H0.862513C0.38616 0 0 0.382421 0 0.855794V20.1442C0 20.6168 0.38758 21 0.865903 21H15.1341C15.6123 21 16 20.6144 16 20.1419V6.53333H10.1159ZM11.744 14.7941C11.616 14.8581 11.424 14.922 11.168 14.922C10.656 14.922 9.888 14.7941 9.248 14.4742C8.16 14.6021 7.328 14.7301 6.688 14.986C6.624 14.986 6.624 14.986 6.56 15.05C5.792 16.3935 5.152 17.0333 4.64 17.0333C4.512 17.0333 4.448 17.0333 4.384 16.9694L4.064 16.7774V16.7134C4 16.5855 4 16.5215 4 16.3935C4.064 16.0737 4.448 15.4978 5.216 15.05C5.344 14.986 5.536 14.8581 5.792 14.7301C5.984 14.4102 6.176 14.0263 6.432 13.5785C6.752 12.9387 6.944 12.2989 7.136 11.7231C6.88 10.9554 6.752 10.5075 7.008 9.61183C7.072 9.35591 7.264 9.1 7.52 9.1H7.648C7.776 9.1 7.904 9.16398 8.032 9.22796C8.48 9.67581 8.288 10.6995 8.032 11.5312V11.5952C8.288 12.2989 8.672 12.8747 9.056 13.2586C9.248 13.3866 9.376 13.5145 9.632 13.6425C9.952 13.6425 10.208 13.5785 10.464 13.5785C11.232 13.5785 11.744 13.7065 11.936 14.0263C12 14.1543 12 14.2823 12 14.4102C11.936 14.4742 11.872 14.6661 11.744 14.7941ZM7.584 12.2989C7.456 12.7468 7.2 13.2586 6.944 13.8344C6.816 14.0903 6.688 14.2823 6.56 14.5382H6.624H6.688C7.52 14.2183 8.288 14.0263 8.8 13.9624C8.672 13.8984 8.608 13.8344 8.544 13.7704C8.224 13.3866 7.84 12.8747 7.584 12.2989ZM11.488 14.2823C11.424 14.2183 11.168 14.0263 10.272 14.0263H10.144C10.144 14.0263 10.144 14.0263 10.144 14.0903C10.592 14.2823 11.04 14.4102 11.36 14.4102H11.488H11.552C11.552 14.4102 11.552 14.4102 11.552 14.3462C11.552 14.3462 11.488 14.3462 11.488 14.2823ZM5.6 15.2419C5.472 15.3059 5.344 15.3699 5.28 15.4339C4.832 15.8177 4.512 16.2656 4.448 16.4575C4.832 16.3935 5.216 16.0097 5.6 15.2419ZM7.52 10.8274C7.584 10.5715 7.648 10.4435 7.648 10.2516V10.1237C7.712 9.80376 7.712 9.54785 7.648 9.48387C7.648 9.48387 7.648 9.48387 7.648 9.41989L7.584 9.35591C7.584 9.35591 7.584 9.41989 7.52 9.41989C7.392 9.80376 7.392 10.2516 7.52 10.8274ZM16 5.6H10.8247C10.5642 5.6 10.3529 5.39069 10.3529 5.13218V0L16 5.6Z" fill="#B30B00"/>
</svg>
