<svg width="11" height="11" viewBox="0 0 11 11" fill="none" xmlns="http://www.w3.org/2000/svg">
<path d="M9.78906 3.22191L7.77843 1.21093C7.71157 1.14406 7.63219 1.09101 7.54483 1.05482C7.45746 1.01863 7.36382 1 7.26925 1C7.17469 1 7.08104 1.01863 6.99368 1.05482C6.90631 1.09101 6.82693 1.14406 6.76007 1.21093L1.21106 6.76012C1.14391 6.82673 1.09067 6.90603 1.05444 6.9934C1.0182 7.08077 0.999701 7.17447 1 7.26905V9.28002C1 9.47097 1.07586 9.6541 1.21089 9.78912C1.34592 9.92414 1.52905 10 1.72001 10H3.73109C3.82567 10.0003 3.91938 9.9818 4.00675 9.94557C4.09412 9.90934 4.17342 9.8561 4.24004 9.78895L9.78906 4.24022C9.85593 4.17336 9.90898 4.09398 9.94518 4.00662C9.98137 3.91926 10 3.82562 10 3.73106C10 3.6365 9.98137 3.54286 9.94518 3.4555C9.90898 3.36814 9.85593 3.28876 9.78906 3.22191ZM3.73109 9.28002H1.72001V7.26905L5.68006 3.3092L7.69113 5.32018L3.73109 9.28002ZM8.20009 4.8108L6.18901 2.80027L7.26903 1.72031L9.2801 3.73084L8.20009 4.8108Z" fill="#0AB8D9"/>
</svg>
