<svg width="9" height="9" viewBox="0 0 9 9" fill="none" xmlns="http://www.w3.org/2000/svg">
<path d="M4.5 0C3.60999 0 2.73996 0.26392 1.99994 0.758387C1.25991 1.25285 0.683138 1.95566 0.342544 2.77792C0.00194978 3.60019 -0.0871652 4.50499 0.0864682 5.37791C0.260102 6.25082 0.688685 7.05264 1.31802 7.68198C1.94736 8.31131 2.74918 8.7399 3.62209 8.91353C4.49501 9.08716 5.39981 8.99805 6.22208 8.65746C7.04434 8.31686 7.74715 7.74009 8.24161 7.00006C8.73608 6.26004 9 5.39001 9 4.5C8.99874 3.30691 8.52423 2.16305 7.68059 1.31941C6.83695 0.47577 5.69309 0.00125992 4.5 0ZM4.5 8.30769C3.74691 8.30769 3.01073 8.08437 2.38456 7.66598C1.75839 7.24758 1.27035 6.6529 0.982153 5.95714C0.693958 5.26137 0.618553 4.49578 0.765473 3.75716C0.912394 3.01854 1.27504 2.34007 1.80756 1.80755C2.34007 1.27504 3.01854 0.912392 3.75716 0.765471C4.49578 0.618551 5.26138 0.693956 5.95714 0.982151C6.65291 1.27035 7.24759 1.75839 7.66598 2.38456C8.08438 3.01073 8.30769 3.74691 8.30769 4.5C8.30655 5.50951 7.90501 6.47735 7.19118 7.19118C6.47735 7.90501 5.50951 8.30655 4.5 8.30769ZM5.19231 6.57692C5.19231 6.66873 5.15584 6.75677 5.09092 6.82169C5.02601 6.88661 4.93796 6.92308 4.84615 6.92308C4.66254 6.92308 4.48645 6.85014 4.35662 6.7203C4.22679 6.59047 4.15385 6.41438 4.15385 6.23077V4.5C4.06204 4.5 3.974 4.46353 3.90908 4.39861C3.84416 4.3337 3.80769 4.24565 3.80769 4.15385C3.80769 4.06204 3.84416 3.97399 3.90908 3.90908C3.974 3.84416 4.06204 3.80769 4.15385 3.80769C4.33746 3.80769 4.51355 3.88063 4.64338 4.01046C4.77322 4.1403 4.84615 4.31639 4.84615 4.5V6.23077C4.93796 6.23077 5.02601 6.26724 5.09092 6.33215C5.15584 6.39707 5.19231 6.48512 5.19231 6.57692ZM3.80769 2.59615C3.80769 2.49346 3.83815 2.39307 3.8952 2.30768C3.95225 2.2223 4.03335 2.15575 4.12822 2.11645C4.2231 2.07715 4.3275 2.06686 4.42822 2.0869C4.52894 2.10693 4.62146 2.15639 4.69408 2.229C4.76669 2.30162 4.81614 2.39414 4.83618 2.49486C4.85621 2.59558 4.84593 2.69998 4.80663 2.79485C4.76733 2.88973 4.70078 2.97082 4.61539 3.02788C4.53001 3.08493 4.42962 3.11538 4.32692 3.11538C4.18922 3.11538 4.05715 3.06068 3.95977 2.9633C3.8624 2.86593 3.80769 2.73386 3.80769 2.59615Z" fill="white"/>
</svg>
