<svg width="37" height="18" viewBox="0 0 37 18" fill="none" xmlns="http://www.w3.org/2000/svg">
<path d="M34.3911 15.3687C37.8696 11.858 37.8696 6.14885 34.3911 2.63817C32.7096 0.934351 30.47 0 28.0874 0C25.7252 0 23.4924 0.927481 21.811 2.60382C21.5182 2.87176 19.9934 4.30076 18.3119 6.69847L18.1758 6.89084L18.0669 6.68473C16.7122 4.1084 15.2826 2.7 15.2214 2.64504C13.5399 0.934351 11.3003 0 8.91771 0C6.53512 0 4.29548 0.934351 2.60724 2.63817C0.925808 4.33511 0 6.59542 0 9C0 11.4046 0.925808 13.6649 2.60724 15.3687C6.07221 18.8588 11.7156 18.8725 15.1941 15.3962C15.4052 15.2038 16.154 14.4893 17.1343 13.3282L17.3317 13.0947L17.3861 13.3969C17.5631 14.4344 17.6584 15.5061 17.6584 16.571V17.8832H20.4903V16.571C20.4903 14.3656 20.1636 12.2084 19.5169 10.1542L19.4964 10.0924L19.7075 9.74885C21.6476 6.56794 23.6898 4.74046 23.7102 4.71985L23.7851 4.65114C24.9288 3.49008 26.4604 2.85802 28.0874 2.85802C29.7144 2.85802 31.2392 3.49695 32.3897 4.65802C34.7587 7.05573 34.7655 10.9511 32.3897 13.3489C29.8982 15.8634 26.4808 15.3756 24.2548 14.1664L22.8729 16.6603C24.4727 17.5397 26.229 18 27.9512 18C30.4223 18 32.7096 17.0656 34.3911 15.3687ZM16.2901 9.77633C14.7176 11.9885 13.2949 13.2733 13.2813 13.287L13.22 13.3489C12.0355 14.5443 10.4766 15.142 8.91771 15.142C7.35882 15.142 5.79992 14.5443 4.61543 13.3489C2.23964 10.9511 2.23964 7.05573 4.61543 4.65802C5.76588 3.49695 7.29755 2.85802 8.91771 2.85802C10.5447 2.85802 12.0764 3.50382 13.2404 4.67176C13.254 4.6855 15.0172 6.45114 16.3106 9.63893L16.3378 9.7145L16.2901 9.77633Z" fill="white"/>
</svg>
