<svg width="21" height="20" viewBox="0 0 21 20" fill="none" xmlns="http://www.w3.org/2000/svg">
<path d="M11.3245 0.000629179C11.6099 0.0405431 11.8963 0.0729128 12.1805 0.120998C13.8353 0.401631 15.3801 1.15713 16.6382 2.30106C17.8963 3.44499 18.8169 4.93117 19.2946 6.58956C19.4881 7.25706 19.6044 7.94583 19.641 8.64151C19.6456 8.72857 19.6693 8.78074 19.7461 8.82757C20.2423 9.13022 20.4876 9.58625 20.4894 10.179C20.4924 11.1688 20.4924 12.1585 20.4894 13.1483C20.4873 14.3784 19.2763 15.0369 18.2817 14.5293C18.1833 14.4793 18.1215 14.4765 18.0277 14.5437C17.1137 15.1965 16.0874 15.5551 15.0008 15.7459C14.7461 15.7908 14.4869 15.8087 14.2322 15.8534C14.1573 15.8698 14.0901 15.912 14.0415 15.9731C13.8563 16.2142 13.6251 16.3502 13.3238 16.3502C12.9381 16.3502 12.5522 16.3534 12.1662 16.3502C11.6617 16.3452 11.2764 15.9615 11.2666 15.4602C11.2639 15.3406 11.2841 15.2217 11.326 15.1102C11.368 14.9987 11.431 14.8969 11.5112 14.8106C11.5915 14.7244 11.6875 14.6553 11.7937 14.6074C11.9 14.5596 12.0143 14.5339 12.1302 14.5318C12.536 14.5177 12.9424 14.5227 13.3488 14.5318C13.6099 14.5371 13.8261 14.6541 14.0016 14.8561C14.0363 14.8961 14.1009 14.9375 14.1478 14.9328C15.3359 14.8172 16.4588 14.495 17.4683 13.8149C17.4897 13.8008 17.5101 13.7852 17.5293 13.7681C17.5095 13.4538 17.4781 13.1678 17.476 12.8831C17.4693 11.977 17.4735 11.0709 17.4735 10.1648C17.4735 9.58813 17.7172 9.14908 18.1854 8.84328C18.2586 8.79583 18.2881 8.75434 18.2823 8.65911C18.0627 5.14763 15.4858 2.16352 12.1287 1.53747C8.0835 0.783194 4.24084 3.42316 3.36533 7.56478C3.29008 7.92149 3.2648 8.28763 3.21301 8.65157C3.20082 8.73831 3.22398 8.79049 3.30257 8.84014C3.77963 9.14625 4.01999 9.5919 4.01907 10.1743C4.01907 11.1643 4.01907 12.1541 4.01907 13.1439C4.01907 14.039 3.37721 14.6968 2.50565 14.6974C1.65268 14.6974 1.0032 14.0302 1.00137 13.1458C0.999543 12.156 0.999543 11.1663 1.00137 10.1765C1.0035 9.58405 1.25239 9.13305 1.74315 8.82066C1.77007 8.80177 1.79293 8.77737 1.81033 8.74899C1.82773 8.72061 1.83929 8.68884 1.84429 8.65566C2.10476 4.5637 4.84615 1.19899 8.715 0.245457C9.14727 0.138915 9.59478 0.0993138 10.0353 0.0279716C10.0792 0.0210574 10.1224 0.00942848 10.1663 0L11.3245 0.000629179Z" fill="white"/>
<path d="M15.6891 16.5851C15.688 16.6004 15.6845 16.6154 15.6787 16.6295C14.9476 17.7326 14.09 18.7003 12.937 19.3452C11.2146 20.3094 9.56898 20.0932 8.00194 18.9555C6.99665 18.226 6.22136 17.2734 5.59838 16.1926C5.27517 15.6322 5.01501 15.0332 4.72439 14.4524C4.67565 14.3556 4.68296 14.2723 4.72926 14.173C4.8789 13.8447 4.95431 13.4855 4.94982 13.1227C4.94982 12.1434 4.94982 11.164 4.94982 10.1845C4.94799 9.49305 4.72012 8.89591 4.25404 8.39306C4.20909 8.33659 4.18773 8.26401 4.19463 8.19129C4.56019 5.4256 6.65698 3.10242 9.31004 2.51786C12.9193 1.72272 16.3906 4.0019 17.2174 7.71012C17.2232 7.73558 17.2262 7.76198 17.2342 7.78649C17.338 8.10895 17.2984 8.36572 17.0514 8.64008C16.6816 9.05211 16.546 9.58702 16.5451 10.1486C16.5451 11.1333 16.542 12.1179 16.5475 13.1029C16.5475 13.2318 16.5076 13.2981 16.3952 13.3512C15.7914 13.6397 15.1495 13.834 14.4903 13.9279C14.4322 13.9333 14.374 13.9185 14.3249 13.8861C14.0173 13.6785 13.6567 13.5701 13.2892 13.575C12.9084 13.5787 12.5276 13.575 12.1468 13.575C11.1619 13.5787 10.3583 14.3943 10.3446 15.4028C10.3303 16.4327 11.1107 17.2819 12.1069 17.3039C12.5781 17.3146 13.0512 17.3105 13.5222 17.2873C13.8926 17.269 14.2128 17.0987 14.4998 16.8564C14.5664 16.8036 14.6444 16.7682 14.727 16.753C15.046 16.6936 15.3655 16.6417 15.6891 16.5851Z" fill="white"/>
</svg>
