<svg width="376" height="32" viewBox="0 0 376 32" fill="none" xmlns="http://www.w3.org/2000/svg">
<rect x="108.5" y="0.5" width="187" height="31" rx="3.5" fill="white"/>
<rect x="108.5" y="0.5" width="187" height="31" rx="3.5" stroke="#454D5B"/>
<path d="M129.549 17.216C129.549 18.064 129.408 18.8427 129.125 19.552C128.843 20.2613 128.445 20.872 127.933 21.384C127.421 21.896 126.805 22.2933 126.085 22.576C125.365 22.8587 124.568 23 123.693 23H119.277V11.432H123.693C124.568 11.432 125.365 11.576 126.085 11.864C126.805 12.1467 127.421 12.544 127.933 13.056C128.445 13.5627 128.843 14.1707 129.125 14.88C129.408 15.5893 129.549 16.368 129.549 17.216ZM127.349 17.216C127.349 16.5813 127.264 16.0133 127.093 15.512C126.923 15.0053 126.68 14.5787 126.365 14.232C126.051 13.88 125.667 13.6107 125.213 13.424C124.765 13.2373 124.259 13.144 123.693 13.144H121.445V21.288H123.693C124.259 21.288 124.765 21.1947 125.213 21.008C125.667 20.8213 126.051 20.5547 126.365 20.208C126.68 19.856 126.923 19.4293 127.093 18.928C127.264 18.4213 127.349 17.8507 127.349 17.216ZM134.623 14.664C135.236 14.664 135.791 14.7627 136.287 14.96C136.788 15.1573 137.215 15.4373 137.567 15.8C137.919 16.1627 138.191 16.6053 138.383 17.128C138.575 17.6507 138.671 18.2347 138.671 18.88C138.671 19.5307 138.575 20.1173 138.383 20.64C138.191 21.1627 137.919 21.608 137.567 21.976C137.215 22.344 136.788 22.6267 136.287 22.824C135.791 23.0213 135.236 23.12 134.623 23.12C134.009 23.12 133.452 23.0213 132.951 22.824C132.449 22.6267 132.02 22.344 131.663 21.976C131.311 21.608 131.036 21.1627 130.839 20.64C130.647 20.1173 130.551 19.5307 130.551 18.88C130.551 18.2347 130.647 17.6507 130.839 17.128C131.036 16.6053 131.311 16.1627 131.663 15.8C132.02 15.4373 132.449 15.1573 132.951 14.96C133.452 14.7627 134.009 14.664 134.623 14.664ZM134.623 21.6C135.305 21.6 135.809 21.3707 136.135 20.912C136.465 20.4533 136.631 19.7813 136.631 18.896C136.631 18.0107 136.465 17.336 136.135 16.872C135.809 16.408 135.305 16.176 134.623 16.176C133.929 16.176 133.417 16.4107 133.087 16.88C132.756 17.344 132.591 18.016 132.591 18.896C132.591 19.776 132.756 20.448 133.087 20.912C133.417 21.3707 133.929 21.6 134.623 21.6ZM139.212 14.792H140.78C140.93 14.792 141.055 14.8267 141.156 14.896C141.258 14.9653 141.322 15.0533 141.348 15.16L142.524 19.544C142.588 19.784 142.639 20.0187 142.676 20.248C142.719 20.4773 142.759 20.7067 142.796 20.936C142.855 20.7067 142.916 20.4773 142.98 20.248C143.05 20.0187 143.122 19.784 143.196 19.544L144.556 15.144C144.588 15.0373 144.652 14.9493 144.748 14.88C144.844 14.8107 144.956 14.776 145.084 14.776H145.956C146.1 14.776 146.22 14.8107 146.316 14.88C146.412 14.9493 146.476 15.0373 146.508 15.144L147.852 19.624C147.922 19.8533 147.983 20.0773 148.036 20.296C148.095 20.5093 148.151 20.7253 148.204 20.944C148.242 20.7147 148.282 20.4853 148.324 20.256C148.372 20.0267 148.431 19.7893 148.5 19.544L149.716 15.16C149.743 15.0533 149.807 14.9653 149.908 14.896C150.01 14.8267 150.127 14.792 150.26 14.792H151.756L149.156 23H147.564C147.394 23 147.271 22.8827 147.196 22.648L145.716 17.904C145.668 17.7493 145.623 17.5947 145.58 17.44C145.543 17.28 145.511 17.1227 145.484 16.968C145.452 17.128 145.418 17.288 145.38 17.448C145.343 17.6027 145.3 17.76 145.252 17.92L143.756 22.648C143.682 22.8827 143.538 23 143.324 23H141.812L139.212 14.792ZM152.868 23V14.792H154.077C154.333 14.792 154.501 14.912 154.581 15.152L154.717 15.8C154.882 15.6293 155.055 15.4747 155.237 15.336C155.423 15.1973 155.618 15.0773 155.821 14.976C156.029 14.8747 156.25 14.7973 156.485 14.744C156.719 14.6907 156.975 14.664 157.253 14.664C157.701 14.664 158.098 14.7413 158.445 14.896C158.791 15.0453 159.079 15.2587 159.309 15.536C159.543 15.808 159.719 16.136 159.837 16.52C159.959 16.8987 160.021 17.3173 160.021 17.776V23H158.045V17.776C158.045 17.2747 157.927 16.888 157.693 16.616C157.463 16.3387 157.117 16.2 156.653 16.2C156.311 16.2 155.991 16.2773 155.693 16.432C155.394 16.5867 155.111 16.7973 154.845 17.064V23H152.868ZM164.066 11.112V23H162.09V11.112H164.066ZM169.81 14.664C170.423 14.664 170.978 14.7627 171.474 14.96C171.975 15.1573 172.402 15.4373 172.754 15.8C173.106 16.1627 173.378 16.6053 173.57 17.128C173.762 17.6507 173.858 18.2347 173.858 18.88C173.858 19.5307 173.762 20.1173 173.57 20.64C173.378 21.1627 173.106 21.608 172.754 21.976C172.402 22.344 171.975 22.6267 171.474 22.824C170.978 23.0213 170.423 23.12 169.81 23.12C169.197 23.12 168.639 23.0213 168.138 22.824C167.637 22.6267 167.207 22.344 166.85 21.976C166.498 21.608 166.223 21.1627 166.026 20.64C165.834 20.1173 165.738 19.5307 165.738 18.88C165.738 18.2347 165.834 17.6507 166.026 17.128C166.223 16.6053 166.498 16.1627 166.85 15.8C167.207 15.4373 167.637 15.1573 168.138 14.96C168.639 14.7627 169.197 14.664 169.81 14.664ZM169.81 21.6C170.493 21.6 170.997 21.3707 171.322 20.912C171.653 20.4533 171.818 19.7813 171.818 18.896C171.818 18.0107 171.653 17.336 171.322 16.872C170.997 16.408 170.493 16.176 169.81 16.176C169.117 16.176 168.605 16.4107 168.274 16.88C167.943 17.344 167.778 18.016 167.778 18.896C167.778 19.776 167.943 20.448 168.274 20.912C168.605 21.3707 169.117 21.6 169.81 21.6ZM181.832 23H180.944C180.757 23 180.61 22.9733 180.504 22.92C180.397 22.8613 180.317 22.7467 180.264 22.576L180.088 21.992C179.88 22.1787 179.674 22.344 179.472 22.488C179.274 22.6267 179.069 22.744 178.856 22.84C178.642 22.936 178.416 23.008 178.176 23.056C177.936 23.104 177.669 23.128 177.376 23.128C177.029 23.128 176.709 23.0827 176.416 22.992C176.122 22.896 175.869 22.7547 175.656 22.568C175.448 22.3813 175.285 22.1493 175.168 21.872C175.05 21.5947 174.992 21.272 174.992 20.904C174.992 20.5947 175.072 20.2907 175.232 19.992C175.397 19.688 175.669 19.416 176.048 19.176C176.426 18.9307 176.93 18.728 177.56 18.568C178.189 18.408 178.97 18.3173 179.904 18.296V17.816C179.904 17.2667 179.786 16.8613 179.552 16.6C179.322 16.3333 178.986 16.2 178.544 16.2C178.224 16.2 177.957 16.2373 177.744 16.312C177.53 16.3867 177.344 16.472 177.184 16.568C177.029 16.6587 176.885 16.7413 176.752 16.816C176.618 16.8907 176.472 16.928 176.312 16.928C176.178 16.928 176.064 16.8933 175.968 16.824C175.872 16.7547 175.794 16.6693 175.736 16.568L175.376 15.936C176.32 15.072 177.458 14.64 178.792 14.64C179.272 14.64 179.698 14.72 180.072 14.88C180.45 15.0347 180.77 15.2533 181.032 15.536C181.293 15.8133 181.49 16.1467 181.624 16.536C181.762 16.9253 181.832 17.352 181.832 17.816V23ZM177.992 21.768C178.194 21.768 178.381 21.7493 178.552 21.712C178.722 21.6747 178.882 21.6187 179.032 21.544C179.186 21.4693 179.333 21.3787 179.472 21.272C179.616 21.16 179.76 21.0293 179.904 20.88V19.496C179.328 19.5227 178.845 19.5733 178.456 19.648C178.072 19.7173 177.762 19.808 177.528 19.92C177.293 20.032 177.125 20.1627 177.024 20.312C176.928 20.4613 176.88 20.624 176.88 20.8C176.88 21.1467 176.981 21.3947 177.184 21.544C177.392 21.6933 177.661 21.768 177.992 21.768ZM189.551 23C189.295 23 189.127 22.88 189.047 22.64L188.887 21.848C188.716 22.04 188.537 22.2133 188.351 22.368C188.164 22.5227 187.961 22.656 187.743 22.768C187.529 22.88 187.297 22.9653 187.047 23.024C186.801 23.088 186.535 23.12 186.247 23.12C185.799 23.12 185.388 23.0267 185.015 22.84C184.641 22.6533 184.319 22.384 184.047 22.032C183.78 21.6747 183.572 21.2347 183.423 20.712C183.279 20.1893 183.207 19.592 183.207 18.92C183.207 18.312 183.289 17.7467 183.455 17.224C183.62 16.7013 183.857 16.248 184.167 15.864C184.476 15.48 184.847 15.1813 185.279 14.968C185.711 14.7493 186.196 14.64 186.735 14.64C187.193 14.64 187.585 14.7147 187.911 14.864C188.236 15.008 188.527 15.2027 188.783 15.448V11.112H190.759V23H189.551ZM186.919 21.552C187.329 21.552 187.679 21.4667 187.967 21.296C188.255 21.1253 188.527 20.8827 188.783 20.568V16.888C188.559 16.616 188.313 16.424 188.047 16.312C187.785 16.2 187.503 16.144 187.199 16.144C186.9 16.144 186.628 16.2 186.383 16.312C186.143 16.424 185.937 16.5947 185.767 16.824C185.601 17.048 185.473 17.336 185.383 17.688C185.292 18.0347 185.247 18.4453 185.247 18.92C185.247 19.4 185.284 19.808 185.359 20.144C185.439 20.4747 185.551 20.7467 185.695 20.96C185.839 21.168 186.015 21.32 186.223 21.416C186.431 21.5067 186.663 21.552 186.919 21.552ZM200.762 21.264C201.178 21.264 201.548 21.1947 201.874 21.056C202.204 20.9173 202.482 20.7227 202.706 20.472C202.935 20.2213 203.108 19.9173 203.226 19.56C203.348 19.2027 203.41 18.8027 203.41 18.36V11.432H205.562V18.36C205.562 19.048 205.45 19.6853 205.226 20.272C205.007 20.8533 204.69 21.3573 204.274 21.784C203.858 22.2053 203.354 22.536 202.762 22.776C202.17 23.0107 201.503 23.128 200.762 23.128C200.02 23.128 199.354 23.0107 198.762 22.776C198.17 22.536 197.666 22.2053 197.25 21.784C196.839 21.3573 196.522 20.8533 196.298 20.272C196.079 19.6853 195.97 19.048 195.97 18.36V11.432H198.122V18.352C198.122 18.7947 198.18 19.1947 198.298 19.552C198.42 19.9093 198.594 20.216 198.818 20.472C199.042 20.7227 199.316 20.9173 199.641 21.056C199.972 21.1947 200.346 21.264 200.762 21.264ZM212.506 16.392C212.453 16.4773 212.397 16.5387 212.338 16.576C212.279 16.608 212.205 16.624 212.114 16.624C212.018 16.624 211.914 16.5973 211.802 16.544C211.695 16.4907 211.57 16.432 211.426 16.368C211.282 16.2987 211.117 16.2373 210.93 16.184C210.749 16.1307 210.533 16.104 210.282 16.104C209.893 16.104 209.586 16.1867 209.362 16.352C209.138 16.5173 209.026 16.7333 209.026 17C209.026 17.176 209.082 17.3253 209.194 17.448C209.311 17.5653 209.463 17.6693 209.65 17.76C209.842 17.8507 210.058 17.9333 210.298 18.008C210.538 18.0773 210.783 18.1547 211.034 18.24C211.285 18.3253 211.53 18.424 211.77 18.536C212.01 18.6427 212.223 18.7813 212.41 18.952C212.602 19.1173 212.754 19.3173 212.866 19.552C212.983 19.7867 213.042 20.0693 213.042 20.4C213.042 20.7947 212.97 21.16 212.826 21.496C212.682 21.8267 212.471 22.1147 212.194 22.36C211.917 22.6 211.573 22.7893 211.162 22.928C210.757 23.0613 210.29 23.128 209.762 23.128C209.479 23.128 209.202 23.1013 208.93 23.048C208.663 23 208.405 22.9307 208.154 22.84C207.909 22.7493 207.679 22.6427 207.466 22.52C207.258 22.3973 207.074 22.264 206.914 22.12L207.37 21.368C207.429 21.2773 207.498 21.208 207.578 21.16C207.658 21.112 207.759 21.088 207.882 21.088C208.005 21.088 208.119 21.1227 208.226 21.192C208.338 21.2613 208.466 21.336 208.61 21.416C208.754 21.496 208.922 21.5707 209.114 21.64C209.311 21.7093 209.559 21.744 209.858 21.744C210.093 21.744 210.293 21.7173 210.458 21.664C210.629 21.6053 210.767 21.5307 210.874 21.44C210.986 21.3493 211.066 21.2453 211.114 21.128C211.167 21.0053 211.194 20.88 211.194 20.752C211.194 20.56 211.135 20.4027 211.018 20.28C210.906 20.1573 210.754 20.0507 210.562 19.96C210.375 19.8693 210.159 19.7893 209.914 19.72C209.674 19.6453 209.426 19.5653 209.17 19.48C208.919 19.3947 208.671 19.296 208.426 19.184C208.186 19.0667 207.97 18.92 207.778 18.744C207.591 18.568 207.439 18.352 207.322 18.096C207.21 17.84 207.154 17.5307 207.154 17.168C207.154 16.832 207.221 16.512 207.354 16.208C207.487 15.904 207.682 15.64 207.938 15.416C208.199 15.1867 208.522 15.0053 208.906 14.872C209.295 14.7333 209.743 14.664 210.25 14.664C210.815 14.664 211.33 14.7573 211.794 14.944C212.258 15.1307 212.645 15.376 212.954 15.68L212.506 16.392ZM218.011 14.664C218.528 14.664 219.003 14.7467 219.435 14.912C219.872 15.0773 220.248 15.32 220.563 15.64C220.877 15.9547 221.123 16.344 221.299 16.808C221.475 17.2667 221.562 17.792 221.562 18.384C221.562 18.5333 221.555 18.6587 221.539 18.76C221.528 18.856 221.504 18.9333 221.467 18.992C221.435 19.0453 221.389 19.0853 221.331 19.112C221.272 19.1333 221.197 19.144 221.107 19.144H216.035C216.093 19.9867 216.32 20.6053 216.715 21C217.109 21.3947 217.632 21.592 218.283 21.592C218.603 21.592 218.877 21.5547 219.107 21.48C219.341 21.4053 219.544 21.3227 219.715 21.232C219.891 21.1413 220.043 21.0587 220.171 20.984C220.304 20.9093 220.432 20.872 220.555 20.872C220.635 20.872 220.704 20.888 220.763 20.92C220.821 20.952 220.872 20.9973 220.915 21.056L221.491 21.776C221.272 22.032 221.027 22.248 220.755 22.424C220.483 22.5947 220.197 22.7333 219.899 22.84C219.605 22.9413 219.304 23.0133 218.995 23.056C218.691 23.0987 218.395 23.12 218.107 23.12C217.536 23.12 217.005 23.0267 216.515 22.84C216.024 22.648 215.597 22.368 215.235 22C214.872 21.6267 214.587 21.168 214.379 20.624C214.171 20.0747 214.067 19.44 214.067 18.72C214.067 18.16 214.157 17.6347 214.339 17.144C214.52 16.648 214.779 16.2187 215.115 15.856C215.456 15.488 215.869 15.1973 216.355 14.984C216.845 14.7707 217.397 14.664 218.011 14.664ZM218.051 16.08C217.475 16.08 217.024 16.2427 216.699 16.568C216.373 16.8933 216.165 17.3547 216.075 17.952H219.787C219.787 17.696 219.752 17.456 219.683 17.232C219.613 17.0027 219.507 16.8027 219.363 16.632C219.219 16.4613 219.037 16.328 218.819 16.232C218.6 16.1307 218.344 16.08 218.051 16.08ZM223.165 23V14.792H224.325C224.528 14.792 224.669 14.8293 224.749 14.904C224.829 14.9787 224.883 15.1067 224.909 15.288L225.029 16.28C225.323 15.7733 225.667 15.3733 226.061 15.08C226.456 14.7867 226.899 14.64 227.389 14.64C227.795 14.64 228.131 14.7333 228.397 14.92L228.141 16.4C228.125 16.496 228.091 16.5653 228.037 16.608C227.984 16.6453 227.912 16.664 227.821 16.664C227.741 16.664 227.632 16.6453 227.493 16.608C227.355 16.5707 227.171 16.552 226.941 16.552C226.531 16.552 226.179 16.6667 225.885 16.896C225.592 17.12 225.344 17.4507 225.141 17.888V23H223.165ZM238.71 18.2C238.801 18.3707 238.884 18.5493 238.958 18.736C239.038 18.9173 239.116 19.1013 239.19 19.288C239.265 19.096 239.342 18.9067 239.422 18.72C239.502 18.5333 239.588 18.3547 239.678 18.184L243.102 11.776C243.145 11.696 243.188 11.632 243.23 11.584C243.278 11.536 243.329 11.5013 243.382 11.48C243.441 11.4587 243.505 11.4453 243.574 11.44C243.644 11.4347 243.726 11.432 243.822 11.432H245.446V23H243.55V15.528C243.55 15.3893 243.553 15.2373 243.558 15.072C243.569 14.9067 243.582 14.7387 243.598 14.568L240.102 21.128C240.022 21.2773 239.918 21.3947 239.79 21.48C239.662 21.56 239.513 21.6 239.342 21.6H239.046C238.876 21.6 238.726 21.56 238.598 21.48C238.47 21.3947 238.366 21.2773 238.286 21.128L234.742 14.544C234.764 14.72 234.777 14.8933 234.782 15.064C234.793 15.2293 234.798 15.384 234.798 15.528V23H232.902V11.432H234.526C234.622 11.432 234.705 11.4347 234.774 11.44C234.844 11.4453 234.905 11.4587 234.958 11.48C235.017 11.5013 235.07 11.536 235.118 11.584C235.166 11.632 235.212 11.696 235.254 11.776L238.71 18.2ZM254.097 23H253.209C253.023 23 252.876 22.9733 252.769 22.92C252.663 22.8613 252.583 22.7467 252.529 22.576L252.353 21.992C252.145 22.1787 251.94 22.344 251.737 22.488C251.54 22.6267 251.335 22.744 251.121 22.84C250.908 22.936 250.681 23.008 250.441 23.056C250.201 23.104 249.935 23.128 249.641 23.128C249.295 23.128 248.975 23.0827 248.681 22.992C248.388 22.896 248.135 22.7547 247.921 22.568C247.713 22.3813 247.551 22.1493 247.433 21.872C247.316 21.5947 247.257 21.272 247.257 20.904C247.257 20.5947 247.337 20.2907 247.497 19.992C247.663 19.688 247.935 19.416 248.313 19.176C248.692 18.9307 249.196 18.728 249.825 18.568C250.455 18.408 251.236 18.3173 252.169 18.296V17.816C252.169 17.2667 252.052 16.8613 251.817 16.6C251.588 16.3333 251.252 16.2 250.809 16.2C250.489 16.2 250.223 16.2373 250.009 16.312C249.796 16.3867 249.609 16.472 249.449 16.568C249.295 16.6587 249.151 16.7413 249.017 16.816C248.884 16.8907 248.737 16.928 248.577 16.928C248.444 16.928 248.329 16.8933 248.233 16.824C248.137 16.7547 248.06 16.6693 248.001 16.568L247.641 15.936C248.585 15.072 249.724 14.64 251.057 14.64C251.537 14.64 251.964 14.72 252.337 14.88C252.716 15.0347 253.036 15.2533 253.297 15.536C253.559 15.8133 253.756 16.1467 253.889 16.536C254.028 16.9253 254.097 17.352 254.097 17.816V23ZM250.257 21.768C250.46 21.768 250.647 21.7493 250.817 21.712C250.988 21.6747 251.148 21.6187 251.297 21.544C251.452 21.4693 251.599 21.3787 251.737 21.272C251.881 21.16 252.025 21.0293 252.169 20.88V19.496C251.593 19.5227 251.111 19.5733 250.721 19.648C250.337 19.7173 250.028 19.808 249.793 19.92C249.559 20.032 249.391 20.1627 249.289 20.312C249.193 20.4613 249.145 20.624 249.145 20.8C249.145 21.1467 249.247 21.3947 249.449 21.544C249.657 21.6933 249.927 21.768 250.257 21.768ZM256.04 23V14.792H257.248C257.504 14.792 257.672 14.912 257.752 15.152L257.888 15.8C258.054 15.6293 258.227 15.4747 258.408 15.336C258.595 15.1973 258.79 15.0773 258.992 14.976C259.2 14.8747 259.422 14.7973 259.656 14.744C259.891 14.6907 260.147 14.664 260.424 14.664C260.872 14.664 261.27 14.7413 261.616 14.896C261.963 15.0453 262.251 15.2587 262.48 15.536C262.715 15.808 262.891 16.136 263.008 16.52C263.131 16.8987 263.192 17.3173 263.192 17.776V23H261.216V17.776C261.216 17.2747 261.099 16.888 260.864 16.616C260.635 16.3387 260.288 16.2 259.824 16.2C259.483 16.2 259.163 16.2773 258.864 16.432C258.566 16.5867 258.283 16.7973 258.016 17.064V23H256.04ZM266.942 14.792V20.008C266.942 20.5093 267.057 20.8987 267.286 21.176C267.521 21.448 267.87 21.584 268.334 21.584C268.675 21.584 268.995 21.5093 269.294 21.36C269.593 21.2053 269.875 20.9947 270.142 20.728V14.792H272.118V23H270.91C270.654 23 270.486 22.88 270.406 22.64L270.27 21.984C270.099 22.1547 269.923 22.312 269.742 22.456C269.561 22.5947 269.366 22.7147 269.158 22.816C268.955 22.912 268.734 22.9867 268.494 23.04C268.259 23.0987 268.006 23.128 267.734 23.128C267.286 23.128 266.889 23.0533 266.542 22.904C266.201 22.7493 265.913 22.5333 265.678 22.256C265.443 21.9787 265.265 21.6507 265.142 21.272C265.025 20.888 264.966 20.4667 264.966 20.008V14.792H266.942ZM280.66 23H279.772C279.585 23 279.439 22.9733 279.332 22.92C279.225 22.8613 279.145 22.7467 279.092 22.576L278.916 21.992C278.708 22.1787 278.503 22.344 278.3 22.488C278.103 22.6267 277.897 22.744 277.684 22.84C277.471 22.936 277.244 23.008 277.004 23.056C276.764 23.104 276.497 23.128 276.204 23.128C275.857 23.128 275.537 23.0827 275.244 22.992C274.951 22.896 274.697 22.7547 274.484 22.568C274.276 22.3813 274.113 22.1493 273.996 21.872C273.879 21.5947 273.82 21.272 273.82 20.904C273.82 20.5947 273.9 20.2907 274.06 19.992C274.225 19.688 274.497 19.416 274.876 19.176C275.255 18.9307 275.759 18.728 276.388 18.568C277.017 18.408 277.799 18.3173 278.732 18.296V17.816C278.732 17.2667 278.615 16.8613 278.38 16.6C278.151 16.3333 277.815 16.2 277.372 16.2C277.052 16.2 276.785 16.2373 276.572 16.312C276.359 16.3867 276.172 16.472 276.012 16.568C275.857 16.6587 275.713 16.7413 275.58 16.816C275.447 16.8907 275.3 16.928 275.14 16.928C275.007 16.928 274.892 16.8933 274.796 16.824C274.7 16.7547 274.623 16.6693 274.564 16.568L274.204 15.936C275.148 15.072 276.287 14.64 277.62 14.64C278.1 14.64 278.527 14.72 278.9 14.88C279.279 15.0347 279.599 15.2533 279.86 15.536C280.121 15.8133 280.319 16.1467 280.452 16.536C280.591 16.9253 280.66 17.352 280.66 17.816V23ZM276.82 21.768C277.023 21.768 277.209 21.7493 277.38 21.712C277.551 21.6747 277.711 21.6187 277.86 21.544C278.015 21.4693 278.161 21.3787 278.3 21.272C278.444 21.16 278.588 21.0293 278.732 20.88V19.496C278.156 19.5227 277.673 19.5733 277.284 19.648C276.9 19.7173 276.591 19.808 276.356 19.92C276.121 20.032 275.953 20.1627 275.852 20.312C275.756 20.4613 275.708 20.624 275.708 20.8C275.708 21.1467 275.809 21.3947 276.012 21.544C276.22 21.6933 276.489 21.768 276.82 21.768ZM284.707 11.112V23H282.731V11.112H284.707Z" fill="#2C323F"/>
<rect x="304.5" y="0.5" width="31" height="31" rx="3.5" fill="white" stroke="#454D5B"/>
<path d="M324.237 11.7625C323.15 10.675 321.658 10 320 10C318.409 10 316.883 10.6321 315.757 11.7574C314.632 12.8826 314 14.4087 314 16C314 17.5913 314.632 19.1174 315.757 20.2426C316.883 21.3679 318.409 22 320 22C322.797 22 325.13 20.0875 325.797 17.5H324.237C323.622 19.2475 321.957 20.5 320 20.5C318.807 20.5 317.662 20.0259 316.818 19.182C315.974 18.3381 315.5 17.1935 315.5 16C315.5 14.8065 315.974 13.6619 316.818 12.818C317.662 11.9741 318.807 11.5 320 11.5C321.245 11.5 322.355 12.0175 323.165 12.835L320.75 15.25H326V10L324.237 11.7625Z" fill="#454D5B"/>
<rect x="344.5" y="0.5" width="31" height="31" rx="3.5" fill="white" stroke="#454D5B"/>
<path d="M364 16C364 15.4696 364.211 14.9609 364.586 14.5858C364.961 14.2107 365.47 14 366 14C366.53 14 367.039 14.2107 367.414 14.5858C367.789 14.9609 368 15.4696 368 16C368 16.5304 367.789 17.0391 367.414 17.4142C367.039 17.7893 366.53 18 366 18C365.47 18 364.961 17.7893 364.586 17.4142C364.211 17.0391 364 16.5304 364 16ZM358 16C358 15.4696 358.211 14.9609 358.586 14.5858C358.961 14.2107 359.47 14 360 14C360.53 14 361.039 14.2107 361.414 14.5858C361.789 14.9609 362 15.4696 362 16C362 16.5304 361.789 17.0391 361.414 17.4142C361.039 17.7893 360.53 18 360 18C359.47 18 358.961 17.7893 358.586 17.4142C358.211 17.0391 358 16.5304 358 16ZM352 16C352 15.4696 352.211 14.9609 352.586 14.5858C352.961 14.2107 353.47 14 354 14C354.53 14 355.039 14.2107 355.414 14.5858C355.789 14.9609 356 15.4696 356 16C356 16.5304 355.789 17.0391 355.414 17.4142C355.039 17.7893 354.53 18 354 18C353.47 18 352.961 17.7893 352.586 17.4142C352.211 17.0391 352 16.5304 352 16Z" fill="#454D5B"/>
</svg>
